<svg width="1808" height="1341" fill="none" xmlns="http://www.w3.org/2000/svg">
<path d="M460 488.721H1359M1359 529.541H460M460 569.937H1359M1359 610.332H460M460 650.302H1359M1359 689.847H460M460 731.518H1359M1359 771.063H460M460 811.459H1359M1359 852.704H460M460.5 890.548L461 450.452H515.5M516 450.452V890.548M572 450.452V890.548M572 450.452H515.5M572 450.452L557.934 441.522M572 450.452H629.5M572 890.548H515.5M572 890.548L557.264 899.903M572 890.548H629.5M629 450.452V890.548M683.5 450.452V890.548M742.5 450.452V890.548M797 450.452V890.548M854.5 450.452V890.548M910 450.452V890.548M965.5 450.452V890.548M965.5 450.452H910.5M965.5 450.452L967.83 441.522M965.5 450.452H1023M965.5 890.548H910.5M965.5 890.548L967.941 899.903M965.5 890.548H1023M1023 450.452V890.548M1023 450.452L1027.68 441.522M1023 450.452H1078.5M1023 890.548L1027.9 899.903M1023 890.548H1077.5M1079 450.452V890.548M1137 450.452V890.548M1192 450.452V890.548M1247.5 450.452V890.548M1304 450.452V890.548M1359 450.452V890.548H1303.75M1359.5 488.721L1379 481.14M1379 481.14L1400 472.976M1379 481.14V441.524M1379 481.14V523.286M1400 472.976L1425 463.257M1400 472.976V517.008M1400 472.976V431.451M1425 463.257L1449 453.926M1425 463.257V419.46M1425 463.257V509.534M1449 453.926L1479.5 442.069M1449 453.926V502.358M1449 453.926V407.948M1479.5 442.069L1510.5 430.017M1479.5 442.069V393.319M1479.5 442.069V493.24M1510.5 430.017L1547 415.827M1510.5 430.017V483.972M1510.5 430.017V378.45M1547 415.827L1586.5 400.471M1547 415.827V360.943M1547 415.827V473.059M1586.5 400.471L1632.5 382.587M1586.5 400.471V461.25M1586.5 400.471V341.997M1632.5 382.587L1683.5 362.76M1632.5 382.587V319.933M1632.5 382.587V447.497M1683.5 362.76L1743.5 339.434M1683.5 362.76V432.25M1683.5 362.76V295.471M1743.5 339.434L1777 327M1743.5 339.434V266.693M1743.5 339.434V414.312M1359.5 529.116L1379 523.286M1379 523.286L1400 517.008M1379 523.286V565.693M1400 517.008L1425 509.534M1400 517.008V561.123M1425 509.534L1449 502.358M1425 509.534V555.682M1449 502.358L1479.5 493.24M1449 502.358V550.459M1479.5 493.24L1510.5 483.972M1479.5 493.24V543.822M1510.5 483.972L1547 473.059M1510.5 483.972V537.075M1547 473.059L1586.5 461.25M1547 473.059V529.132M1586.5 461.25L1632.5 447.497M1586.5 461.25V520.536M1632.5 447.497L1683.5 432.25M1632.5 447.497V510.525M1683.5 432.25L1743.5 414.312M1683.5 432.25V499.426M1743.5 414.312L1762 408.781M1743.5 414.312V486.369M1359.5 569.937L1379 565.693M1379 565.693L1400 561.123M1379 565.693V607.737M1400 561.123L1425 555.682M1400 561.123V604.941M1425 555.682L1449 550.459M1425 555.682V601.613M1449 550.459L1479.5 543.822M1449 550.459V598.419M1479.5 543.822L1510.5 537.075M1479.5 543.822V594.359M1510.5 537.075L1547 529.132M1510.5 537.075V590.232M1547 529.132L1586.5 520.536M1547 529.132V585.374M1586.5 520.536L1632.5 510.525M1586.5 520.536V580.116M1632.5 510.525L1683.5 499.426M1632.5 510.525V573.993M1683.5 499.426L1743.5 486.369M1683.5 499.426V567.204M1743.5 486.369L1777 478.5M1743.5 486.369V559.218M1359.5 610.332L1379 607.737M1379 607.737L1400 604.941M1379 607.737V649.044M1400 604.941L1425 601.613M1400 604.941V648.147M1425 601.613L1449 598.419M1425 601.613V647.078M1449 598.419L1479.5 594.359M1449 598.419V646.053M1479.5 594.359L1510.5 590.232M1479.5 594.359V644.75M1510.5 590.232L1547 585.374M1510.5 590.232V643.425M1547 585.374L1586.5 580.116M1547 585.374V641.865M1586.5 580.116L1632.5 573.993M1586.5 580.116V640.177M1632.5 573.993L1683.5 567.204M1632.5 573.993V638.212M1683.5 567.204L1743.5 559.218M1683.5 567.204V636.033M1743.5 559.218L1762 556.755M1743.5 559.218V633.469M1359.5 649.877L1379 649.044M1379 649.044L1400 648.147M1379 649.044V690.836M1400 648.147L1425 647.078M1400 648.147V691.901M1425 647.078L1449 646.053M1425 647.078V693.169M1449 646.053L1479.5 644.75M1449 646.053V694.386M1479.5 644.75L1510.5 643.425M1479.5 644.75V695.932M1510.5 643.425L1547 641.865M1510.5 643.425V697.504M1547 641.865L1586.5 640.177M1547 641.865V699.355M1586.5 640.177L1632.5 638.212M1586.5 640.177V701.358M1632.5 638.212L1683.5 636.033M1632.5 638.212V703.691M1683.5 636.033L1743.5 633.469M1683.5 636.033V706.277M1743.5 633.469L1775.5 632M1743.5 633.469V709.319M1359.5 689.847L1379 690.836M1379 690.836L1400 691.901M1379 690.836V733.263M1400 691.901L1425 693.169M1400 691.901V736.059M1425 693.169L1449 694.386M1425 693.169V739.387M1449 694.386L1479.5 695.932M1449 694.386V742.581M1479.5 695.932L1510.5 697.504M1479.5 695.932V746.641M1510.5 697.504L1547 699.355M1510.5 697.504V750.768M1547 699.355L1586.5 701.358M1547 699.355V755.626M1586.5 701.358L1632.5 703.691M1586.5 701.358V760.884M1632.5 703.691L1683.5 706.277M1632.5 703.691V767.007M1683.5 706.277L1743.5 709.319M1683.5 706.277V773.796M1743.5 709.319L1762 710.258M1743.5 709.319V781.782M1359.5 730.668L1379 733.263M1379 733.263L1400 736.059M1379 733.263V775.756M1400 736.059L1425 739.387M1400 736.059V780.352M1425 739.387L1449 742.581M1425 739.387V785.824M1449 742.581L1479.5 746.641M1449 742.581V791.076M1479.5 746.641L1510.5 750.768M1479.5 746.641V797.752M1510.5 750.768L1547 755.626M1510.5 750.768V804.536M1547 755.626L1586.5 760.884M1547 755.626V812.525M1586.5 760.884L1632.5 767.007M1586.5 760.884V821.17M1632.5 767.007L1683.5 773.796M1632.5 767.007V831.237M1683.5 773.796L1743.5 781.782M1683.5 773.796V842.399M1743.5 781.782L1770 785.5M1743.5 781.782V855.531M1359.5 771.488L1379 775.756M1379 775.756L1400 780.352M1379 775.756V816.542M1400 780.352L1425 785.824M1400 780.352V822.933M1425 785.824L1449 791.076M1425 785.824V830.541M1449 791.076L1479.5 797.752M1449 791.076V837.845M1479.5 797.752L1510.5 804.536M1479.5 797.752V847.127M1510.5 804.536L1547 812.525M1510.5 804.536V856.56M1547 812.525L1586.5 821.17M1547 812.525V867.668M1586.5 821.17L1632.5 831.237M1586.5 821.17V879.689M1632.5 831.237L1683.5 842.399M1632.5 831.237V893.688M1683.5 842.399L1743.5 855.531M1683.5 842.399V909.208M1743.5 855.531L1762 859.5M1743.5 855.531V927.467M1359.5 810.608L1379 816.542M1379 816.542L1400 822.933M1379 816.542V859.471M1400 822.933L1425 830.541M1400 822.933V867.673M1425 830.541L1449 837.845M1425 830.541V877.438M1449 837.845L1479.5 847.127M1449 837.845V886.812M1479.5 847.127L1510.5 856.56M1479.5 847.127V898.726M1510.5 856.56L1547 867.668M1510.5 856.56V910.834M1547 867.668L1586.5 879.689M1547 867.668V925.091M1586.5 879.689L1632.5 893.688M1586.5 879.689V940.52M1632.5 893.688L1683.5 909.208M1632.5 893.688V958.487M1683.5 909.208L1743.5 927.467M1683.5 909.208V978.408M1743.5 927.467L1767.5 934.771M1743.5 927.467V1001.84M1359.5 851.854L1379 859.471M1379 859.471L1400 867.673M1379 859.471V900.243M1400 867.673L1425 877.438M1400 867.673V910.225M1425 877.438L1449 886.812M1425 877.438V922.108M1449 886.812L1479.5 898.726M1449 886.812V933.516M1479.5 898.726L1510.5 910.834M1479.5 898.726V948.013M1510.5 910.834L1547 925.091M1510.5 910.834V962.748M1547 925.091L1586.5 940.52M1547 925.091V980.098M1586.5 940.52L1632.5 958.487M1586.5 940.52V998.874M1632.5 958.487L1683.5 978.408M1632.5 958.487V1020.74M1683.5 978.408L1743.5 1001.84M1683.5 978.408V1044.98M1743.5 1001.84L1762 1009M1743.5 1001.84V1073.5M1359 450.877L1379 441.524M1379 441.524L1400 431.451M1359.5 890.974L1379 900.243M1379 900.243L1400 910.225M1400 910.225L1425 922.108M1400 431.451L1425 419.46M1425 419.46L1449 407.948M1425 922.108L1449 933.516M1449 933.516L1479.5 948.013M1449 407.948L1479.5 393.319M1479.5 393.319L1510.5 378.45M1479.5 948.013L1510.5 962.748M1510.5 962.748L1547 980.098M1510.5 378.45L1547 360.943M1547 360.943L1586.5 341.997M1547 980.098L1586.5 998.874M1586.5 998.874L1632.5 1020.74M1586.5 341.997L1632.5 319.933M1632.5 319.933L1683.5 295.471M1632.5 1020.74L1683.5 1044.98M1683.5 1044.98L1743.5 1073.5M1743.5 1073.5L1771 1086.57M1683.5 295.471L1743.5 266.693M1743.5 266.693L1754 261.656M461.5 488.721L442 481.14M442 481.14L421 472.976M442 481.14V441.524M442 481.14V523.286M421 472.976L396 463.257M421 472.976V517.008M421 472.976V431.451M396 463.257L372 453.926M396 463.257V419.46M396 463.257V509.534M372 453.926L341.5 442.069M372 453.926V502.358M372 453.926V407.948M341.5 442.069L310.5 430.017M341.5 442.069V393.319M341.5 442.069V493.24M310.5 430.017L274 415.827M310.5 430.017V483.972M310.5 430.017V378.45M274 415.827L234.5 400.471M274 415.827V360.943M274 415.827V473.059M234.5 400.471L188.5 382.587M234.5 400.471V461.25M234.5 400.471V341.997M188.5 382.587L137.5 362.76M188.5 382.587V319.933M188.5 382.587V447.497M137.5 362.76L77.5 339.434M137.5 362.76V432.25M137.5 362.76V295.471M77.5 339.434L46 326.5M77.5 339.434V266.693M77.5 339.434V414.312M461.5 529.116L442 523.286M442 523.286L421 517.008M442 523.286V565.693M421 517.008L396 509.534M421 517.008V561.123M396 509.534L372 502.358M396 509.534V555.682M372 502.358L341.5 493.24M372 502.358V550.459M341.5 493.24L310.5 483.972M341.5 493.24V543.822M310.5 483.972L274 473.059M310.5 483.972V537.075M274 473.059L234.5 461.25M274 473.059V529.132M234.5 461.25L188.5 447.497M234.5 461.25V520.536M188.5 447.497L137.5 432.25M188.5 447.497V510.525M137.5 432.25L77.5 414.312M137.5 432.25V499.426M77.5 414.312L59 408.781M77.5 414.312V486.369M461.5 569.937L442 565.693M442 565.693L421 561.123M442 565.693V607.737M421 561.123L396 555.682M421 561.123V604.941M396 555.682L372 550.459M396 555.682V601.613M372 550.459L341.5 543.822M372 550.459V598.419M341.5 543.822L310.5 537.075M341.5 543.822V594.359M310.5 537.075L274 529.132M310.5 537.075V590.232M274 529.132L234.5 520.536M274 529.132V585.374M234.5 520.536L188.5 510.525M234.5 520.536V580.116M188.5 510.525L137.5 499.426M188.5 510.525V573.993M137.5 499.426L77.5 486.369M137.5 499.426V567.204M77.5 486.369L48 481.14M77.5 486.369V559.218M461.5 610.332L442 607.737M442 607.737L421 604.941M442 607.737V649.044M421 604.941L396 601.613M421 604.941V648.147M396 601.613L372 598.419M396 601.613V647.078M372 598.419L341.5 594.359M372 598.419V646.053M341.5 594.359L310.5 590.232M341.5 594.359V644.75M310.5 590.232L274 585.374M310.5 590.232V643.425M274 585.374L234.5 580.116M274 585.374V641.865M234.5 580.116L188.5 573.993M234.5 580.116V640.177M188.5 573.993L137.5 567.204M188.5 573.993V638.212M137.5 567.204L77.5 559.218M137.5 567.204V636.033M77.5 559.218L59 556.755M77.5 559.218V633.469M461.5 649.877L442 649.044M442 649.044L421 648.147M442 649.044V690.836M421 648.147L396 647.078M421 648.147V691.901M396 647.078L372 646.053M396 647.078V693.169M372 646.053L341.5 644.75M372 646.053V694.386M341.5 644.75L310.5 643.425M341.5 644.75V695.932M310.5 643.425L274 641.865M310.5 643.425V697.504M274 641.865L234.5 640.177M274 641.865V699.355M234.5 640.177L188.5 638.212M234.5 640.177V701.358M188.5 638.212L137.5 636.033M188.5 638.212V703.691M137.5 636.033L77.5 633.469M137.5 636.033V706.277M77.5 633.469L48.5 632M77.5 633.469V709.319M461.5 689.847L442 690.836M442 690.836L421 691.901M442 690.836V733.263M421 691.901L396 693.169M421 691.901V736.059M396 693.169L372 694.386M396 693.169V739.387M372 694.386L341.5 695.932M372 694.386V742.581M341.5 695.932L310.5 697.504M341.5 695.932V746.641M310.5 697.504L274 699.355M310.5 697.504V750.768M274 699.355L234.5 701.358M274 699.355V755.626M234.5 701.358L188.5 703.691M234.5 701.358V760.884M188.5 703.691L137.5 706.277M188.5 703.691V767.007M137.5 706.277L77.5 709.319M137.5 706.277V773.796M77.5 709.319L59 710.258M77.5 709.319V781.782M461.5 730.668L442 733.263M442 733.263L421 736.059M442 733.263V775.756M421 736.059L396 739.387M421 736.059V780.352M396 739.387L372 742.581M396 739.387V785.824M372 742.581L341.5 746.641M372 742.581V791.076M341.5 746.641L310.5 750.768M341.5 746.641V797.752M310.5 750.768L274 755.626M310.5 750.768V804.536M274 755.626L234.5 760.884M274 755.626V812.525M234.5 760.884L188.5 767.007M234.5 760.884V821.17M188.5 767.007L137.5 773.796M188.5 767.007V831.237M137.5 773.796L77.5 781.782M137.5 773.796V842.399M77.5 781.782L51.5 785.824M77.5 781.782V855.531M461.5 771.488L442 775.756M442 775.756L421 780.352M442 775.756V816.542M421 780.352L396 785.824M421 780.352V822.933M396 785.824L372 791.076M396 785.824V830.541M372 791.076L341.5 797.752M372 791.076V837.845M341.5 797.752L310.5 804.536M341.5 797.752V847.127M310.5 804.536L274 812.525M310.5 804.536V856.56M274 812.525L234.5 821.17M274 812.525V867.668M234.5 821.17L188.5 831.237M234.5 821.17V879.689M188.5 831.237L137.5 842.399M188.5 831.237V893.688M137.5 842.399L77.5 855.531M137.5 842.399V909.208M77.5 855.531L59 859.471M77.5 855.531V927.467M461.5 810.608L442 816.542M442 816.542L421 822.933M442 816.542V859.471M421 822.933L396 830.541M421 822.933V867.673M396 830.541L372 837.845M396 830.541V877.438M372 837.845L341.5 847.127M372 837.845V886.812M341.5 847.127L310.5 856.56M341.5 847.127V898.726M310.5 856.56L274 867.668M310.5 856.56V910.834M274 867.668L234.5 879.689M274 867.668V925.091M234.5 879.689L188.5 893.688M234.5 879.689V940.52M188.5 893.688L137.5 909.208M188.5 893.688V958.487M137.5 909.208L77.5 927.467M137.5 909.208V978.408M77.5 927.467L53.5 934.771M77.5 927.467V1001.84M461.5 851.854L442 859.471M442 859.471L421 867.673M442 859.471V900.243M421 867.673L396 877.438M421 867.673V910.225M396 877.438L372 886.812M396 877.438V922.108M372 886.812L341.5 898.726M372 886.812V933.516M341.5 898.726L310.5 910.834M341.5 898.726V948.013M310.5 910.834L274 925.091M310.5 910.834V962.748M274 925.091L234.5 940.52M274 925.091V980.098M234.5 940.52L188.5 958.487M234.5 940.52V998.874M188.5 958.487L137.5 978.408M188.5 958.487V1020.74M137.5 978.408L77.5 1001.84M137.5 978.408V1044.98M77.5 1001.84L58.5 1009.5M77.5 1001.84V1073.5M461.5 450.877L442 441.524M442 441.524L421 431.451M461.5 890.974L442 900.243M442 900.243L421 910.225M421 910.225L396 922.108M421 431.451L396 419.46M396 419.46L372 407.948M396 922.108L372 933.516M372 933.516L341.5 948.013M372 407.948L341.5 393.319M341.5 393.319L310.5 378.45M341.5 948.013L310.5 962.748M310.5 962.748L274 980.098M310.5 378.45L274 360.943M274 360.943L234.5 341.997M274 980.098L234.5 998.874M234.5 998.874L188.5 1020.74M234.5 341.997L188.5 319.933M188.5 319.933L137.5 295.471M188.5 1020.74L137.5 1044.98M137.5 1044.98L77.5 1073.5M77.5 1073.5L50 1086.57M137.5 295.471L77.5 266.693M77.5 266.693L67 261.656M1379 899.903H1320.81M1320.81 899.903H1261.7M1320.81 899.903L1303.75 890.548M1320.81 899.903L1338.64 909.683M1261.7 899.903H1203.33M1261.7 899.903L1247 890.548M1261.7 899.903L1277.07 909.683M1203.33 899.903H1145.66M1203.33 899.903L1191 890.548M1203.33 899.903L1216.22 909.683M1145.66 899.903H1084.9M1145.66 899.903L1136 890.548M1145.66 899.903L1155.76 909.683M1084.9 899.903H1027.9M1084.9 899.903L1077.5 890.548M1084.9 899.903L1092.63 909.683M1027.9 899.903H967.941M1027.9 899.903L1033.03 909.683M967.941 899.903H910.5M967.941 899.903L970.493 909.683M910.5 899.903H851.549M910.5 899.903V890.548M910.5 899.903V909.683M851.549 899.903H792.629M851.549 899.903L854 890.548M851.549 899.903L848.986 909.683M792.629 899.903H734.698M792.629 899.903L797.5 890.548M792.629 899.903L787.536 909.683M734.698 899.903H675.194M734.698 899.903L742 890.548M734.698 899.903L727.065 909.683M675.194 899.903H617.334M675.194 899.903L685 890.548M675.194 899.903L664.942 909.683M617.334 899.903H557.264M617.334 899.903L629.5 890.548M617.334 899.903L604.616 909.683M557.264 899.903H498.581M557.264 899.903L541.858 909.683M498.581 899.903H442.5M498.581 899.903L515.5 890.548M498.581 899.903L480.892 909.683M421.5 909.683H480.892M480.892 909.683H541.858M480.892 909.683L458.59 922.014M541.858 909.683H604.616M541.858 909.683L522.433 922.014M604.616 909.683H664.942M604.616 909.683L588.579 922.014M664.942 909.683H727.065M664.942 909.683L652.016 922.014M727.065 909.683H787.536M727.065 909.683L717.44 922.014M787.536 909.683H848.986M787.536 909.683L781.115 922.014M848.986 909.683H910.5M848.986 909.683L845.754 922.014M910.5 909.683H970.493M910.5 909.683V922.014M970.493 909.683H1033.03M970.493 909.683L973.71 922.014M1033.03 909.683H1092.63M1033.03 909.683L1039.49 922.014M1092.63 909.683H1155.76M1092.63 909.683L1102.38 922.014M1155.76 909.683H1216.22M1155.76 909.683L1168.49 922.014M1216.22 909.683H1277.07M1216.22 909.683L1232.48 922.014M1277.07 909.683H1338.64M1277.07 909.683L1296.45 922.014M1338.64 909.683H1399.5M1338.64 909.683L1361.12 922.014M396.5 922.014H458.59M458.59 922.014H522.433M458.59 922.014L438.547 933.096M522.433 922.014H588.579M522.433 922.014L504.935 933.122M588.579 922.014H652.016M588.579 922.014L574.098 933.149M652.016 922.014H717.44M652.016 922.014L640.317 933.176M717.44 922.014H781.115M717.44 922.014L708.707 933.203M781.115 922.014H845.754M781.115 922.014L775.275 933.229M845.754 922.014H910.5M845.754 922.014L842.808 933.256M910.5 922.014H973.71M910.5 922.014V933.282M973.71 922.014H1039.49M973.71 922.014L976.657 933.309M1039.49 922.014H1102.38M1039.49 922.014L1045.43 933.336M1102.38 922.014H1168.49M1102.38 922.014L1111.35 933.362M1168.49 922.014H1232.48M1168.49 922.014L1180.23 933.389M1232.48 922.014H1296.45M1232.48 922.014L1247.51 933.415M1296.45 922.014H1361.12M1296.45 922.014L1314.41 933.442M1361.12 922.014H1425M1361.12 922.014L1382 933.469M1449 933.495L1382 933.469M1382 933.469L1314.41 933.442M1382 933.469L1407.63 947.527M1314.41 933.442L1247.51 933.415M1314.41 933.442L1336.55 947.527M1247.51 933.415L1180.23 933.389M1247.51 933.415L1266.11 947.527M1180.23 933.389L1111.35 933.362M1180.23 933.389L1194.83 947.527M1111.35 933.362L1045.43 933.336M1111.35 933.362L1122.55 947.527M1045.43 933.336L976.657 933.309M1045.43 933.336L1052.86 947.527M976.657 933.309L910.5 933.282M976.657 933.309L980.367 947.527M910.5 933.282L842.808 933.256M910.5 933.282V947.527M842.808 933.256L775.275 933.229M842.808 933.256L839.068 947.527M775.275 933.229L708.707 933.203M775.275 933.229L767.829 947.527M708.707 933.203L640.317 933.176M708.707 933.203L697.526 947.527M640.317 933.176L574.098 933.149M640.317 933.176L625.273 947.527M574.098 933.149L504.935 933.122M574.098 933.149L555.401 947.527M504.935 933.122L438.547 933.096M504.935 933.122L482.244 947.527M438.547 933.096L372.5 933.07M438.547 933.096L412.446 947.527M342 947.527H412.446M412.446 947.527H482.244M412.446 947.527L385.481 962.436M482.244 947.527H555.401M482.244 947.527L458.717 962.462M555.401 947.527H625.273M555.401 947.527L535.942 962.49M625.273 947.527H697.526M625.273 947.527L609.561 962.516M697.526 947.527H767.829M697.526 947.527L685.806 962.543M767.829 947.527H839.068M767.829 947.527L759.997 962.569M839.068 947.527H910.5M839.068 947.527L835.119 962.596M910.5 947.527H980.367M910.5 947.527V962.622M980.367 947.527H1052.86M980.367 947.527L984.313 962.648M1052.86 947.527H1122.55M1052.86 947.527L1060.8 962.676M1122.55 947.527H1194.83M1122.55 947.527L1134.55 962.702M1194.83 947.527H1266.11M1194.83 947.527L1210.52 962.729M1266.11 947.527H1336.55M1266.11 947.527L1286.18 962.755M1336.55 947.527H1407.63M1336.55 947.527L1360.52 962.782M1407.63 947.527H1479.5M1407.63 947.527L1435.49 962.808M1510.5 962.835L1435.49 962.808M1435.49 962.808L1360.52 962.782M1435.49 962.808L1466.55 979.843M1360.52 962.782L1286.18 962.755M1360.52 962.782L1387.33 979.843M1286.18 962.755L1210.52 962.729M1286.18 962.755L1308.71 979.843M1210.52 962.729L1134.55 962.702M1210.52 962.729L1228.19 979.843M1134.55 962.702L1060.8 962.676M1134.55 962.702L1148.11 979.843M1060.8 962.676L984.313 962.648M1060.8 962.676L1069.8 979.843M984.313 962.648L910.5 962.622M984.313 962.648L988.8 979.843M910.5 962.622L835.119 962.596M910.5 962.622V979.843M835.119 962.596L759.997 962.569M835.119 962.596L830.599 979.843M759.997 962.569L685.806 962.543M759.997 962.569L751.001 979.843M685.806 962.543L609.561 962.516M685.806 962.543L672.303 979.843M609.561 962.516L535.942 962.49M609.561 962.516L591.398 979.843M535.942 962.49L458.717 962.462M535.942 962.49L513.374 979.843M458.717 962.462L385.481 962.436M458.717 962.462L431.337 979.843M385.481 962.436L310.5 962.41M385.481 962.436L353.998 979.843M274.5 979.843H353.998M353.998 979.843H431.337M353.998 979.843L320.159 998.553M431.337 979.843H513.374M431.337 979.843L401.865 998.553M513.374 979.843H591.398M513.374 979.843L489.043 998.553M591.398 979.843H672.303M591.398 979.843L571.786 998.553M672.303 979.843H751.001M672.303 979.843L657.699 998.553M751.001 979.843H830.599M751.001 979.843L741.259 998.553M830.599 979.843H910.5M830.599 979.843L825.696 998.553M910.5 979.843H988.8M910.5 979.843V998.553M988.8 979.843H1069.8M988.8 979.843L993.682 998.553M1069.8 979.843H1148.11M1069.8 979.843L1079.61 998.553M1148.11 979.843H1228.19M1148.11 979.843L1162.9 998.553M1228.19 979.843H1308.71M1228.19 979.843L1247.51 998.553M1308.71 979.843H1387.33M1308.71 979.843L1333.37 998.553M1387.33 979.843H1466.55M1387.33 979.843L1416.74 998.553M1466.55 979.843H1547M1466.55 979.843L1500.66 998.553M1586 998.553H1500.66M1500.66 998.553H1416.74M1500.66 998.553L1540.2 1020.24M1416.74 998.553H1333.37M1416.74 998.553L1450.82 1020.24M1333.37 998.553H1247.51M1333.37 998.553L1361.96 1020.24M1247.51 998.553H1162.9M1247.51 998.553L1269.9 1020.24M1162.9 998.553H1079.61M1162.9 998.553L1180.05 1020.24M1079.61 998.553H993.682M1079.61 998.553L1090.97 1020.24M993.682 998.553H910.5M993.682 998.553L999.34 1020.24M910.5 998.553H825.696M910.5 998.553V1020.24M825.696 998.553H741.259M825.696 998.553L820.013 1020.24M741.259 998.553H657.699M741.259 998.553L729.966 1020.24M657.699 998.553H571.786M657.699 998.553L640.773 1020.24M571.786 998.553H489.043M571.786 998.553L549.054 1020.24M489.043 998.553H401.865M489.043 998.553L460.841 1020.24M401.865 998.553H320.159M401.865 998.553L367.704 1020.24M320.159 998.553H235M320.159 998.553L280.937 1020.24M1632.5 1020.24H1540.2M1540.2 1020.24H1450.82M1540.2 1020.24L1584.38 1044.48M1450.82 1020.24H1361.96M1450.82 1020.24L1488.91 1044.48M1361.96 1020.24H1269.9M1361.96 1020.24L1393.91 1044.48M1269.9 1020.24H1180.05M1269.9 1020.24L1294.92 1044.48M1180.05 1020.24H1090.97M1180.05 1020.24L1199.21 1044.48M1090.97 1020.24H999.34M1090.97 1020.24L1103.68 1044.48M999.34 1020.24H910.5M999.34 1020.24L1005.66 1044.48M910.5 1020.24H820.013M910.5 1020.24V1044.48M820.013 1020.24H729.966M820.013 1020.24L813.662 1044.48M729.966 1020.24H640.773M729.966 1020.24L717.345 1044.48M640.773 1020.24H549.054M640.773 1020.24L621.855 1044.48M549.054 1020.24H460.841M549.054 1020.24L523.647 1044.48M460.841 1020.24H367.704M460.841 1020.24L429.321 1044.48M367.704 1020.24H280.937M367.704 1020.24L329.524 1044.48M280.937 1020.24H189M280.937 1020.24L237.101 1044.48M137.5 1044.48H237.101M237.101 1044.48H329.524M237.101 1044.48L184.805 1073.39M329.524 1044.48H429.321M329.524 1044.48L283.976 1073.39M429.321 1044.48H523.647M429.321 1044.48L391.719 1073.39M523.647 1044.48H621.855M523.647 1044.48L493.338 1073.39M621.855 1044.48H717.345M621.855 1044.48L599.286 1073.39M717.345 1044.48H813.662M717.345 1044.48L702.289 1073.39M813.662 1044.48H910.5M813.662 1044.48L806.085 1073.39M910.5 1044.48H1005.66M910.5 1044.48V1073.39M1005.66 1044.48H1103.68M1005.66 1044.48L1013.21 1073.39M1103.68 1044.48H1199.21M1103.68 1044.48L1118.83 1073.39M1199.21 1044.48H1294.92M1199.21 1044.48L1222.07 1073.39M1294.92 1044.48H1393.91M1294.92 1044.48L1324.77 1073.39M1393.91 1044.48H1488.91M1393.91 1044.48L1432.02 1073.39M1488.91 1044.48H1584.38M1488.91 1044.48L1534.35 1073.39M1584.38 1044.48H1683M1584.38 1044.48L1637.1 1073.39M515.5 890.548H461M184.805 1073.39L104.054 1118.04M184.805 1073.39H77.5M184.805 1073.39H283.976M104.054 1118.04L22.5 1158.5M104.054 1118.04H6M104.054 1118.04H213.645M283.976 1073.39L213.645 1118.04M283.976 1073.39H391.719M213.645 1118.04L79.0107 1203.51M213.645 1118.04H333.656M79.0107 1203.51L6 1249.85M79.0107 1203.51H222.507M79.0107 1203.51H1M629.5 890.548H685M391.719 1073.39L333.656 1118.04M391.719 1073.39H493.338M333.656 1118.04L222.507 1203.51M333.656 1118.04H446.537M222.507 1203.51L53.8477 1333.2L45 1340M222.507 1203.51H356.946M685 890.548H742M221 1333.2L356.946 1203.51M493.338 1073.39L446.537 1118.04M493.338 1073.39H599.286M446.537 1118.04L356.946 1203.51M446.537 1118.04H564.438M356.946 1203.51H497.727M742 890.548H797.5M396.5 1333.2L497.727 1203.51M599.286 1073.39L564.438 1118.04M599.286 1073.39H702.289M564.438 1118.04L497.727 1203.51M564.438 1118.04H679.039M497.727 1203.51H634.534M797.5 890.548H854M567 1333.2L634.534 1203.51M702.289 1073.39L679.039 1118.04M702.289 1073.39H806.085M679.039 1118.04L634.534 1203.51M679.039 1118.04H794.384M634.534 1203.51H771.987M854 890.548H910.5M738 1333.2L771.987 1203.51M806.085 1073.39L794.384 1118.04M806.085 1073.39H910.5M794.384 1118.04L771.987 1203.51M794.384 1118.04H910.5M771.987 1203.51H910.5M910.5 1333.2V1203.51M910.5 1073.39V1118.04M910.5 1073.39H1013.21M910.5 1118.04V1203.51M910.5 1118.04H1024.86M910.5 1203.51H1047.16M1081 1333.2L1047.16 1203.51M1013.21 1073.39L1024.86 1118.04M1013.21 1073.39H1118.83M1024.86 1118.04L1047.16 1203.51M1024.86 1118.04H1142.23M1047.16 1203.51H1187.03M1255 1333.2L1187.03 1203.51M1118.83 1073.39L1142.23 1118.04M1118.83 1073.39H1222.07M1142.23 1118.04L1187.03 1203.51M1142.23 1118.04H1257.38M1187.03 1203.51H1324.95M1077.5 890.548H1136M1427.5 1333.2L1324.95 1203.51M1222.07 1073.39L1257.38 1118.04M1222.07 1073.39H1324.77M1257.38 1118.04L1324.95 1203.51M1257.38 1118.04H1370.87M1324.95 1203.51H1459.1M1136 890.548H1191M1593 1333.2L1459.1 1203.51M1324.77 1073.39L1370.87 1118.04M1324.77 1073.39H1432.02M1370.87 1118.04L1459.1 1203.51M1370.87 1118.04H1490.88M1459.1 1203.51H1603.54M1191 890.548H1247M1774.5 1333.2L1603.54 1203.51M1432.02 1073.39L1490.88 1118.04M1432.02 1073.39H1534.35M1490.88 1118.04L1603.54 1203.51M1490.88 1118.04H1604.52M1603.54 1203.51H1738.84M1247 890.548H1303.75M1534.35 1073.39L1604.52 1118.04M1534.35 1073.39H1637.1M1604.52 1118.04L1738.84 1203.51M1604.52 1118.04H1718.5M1738.84 1203.51L1807 1246.88M1738.84 1203.51H1807M1637.1 1073.39L1718.5 1118.04M1637.1 1073.39H1743.5M1718.5 1118.04L1782 1152.5M1718.5 1118.04H1782M1379 441.522H1320.03M1320.03 441.522H1261.03M1320.03 441.522L1303.75 450.452M1320.03 441.522L1337.86 431.742M1261.03 441.522H1202.77M1261.03 441.522L1247 450.452M1261.03 441.522L1276.4 431.742M1202.77 441.522H1145.22M1202.77 441.522L1191 450.452M1202.77 441.522L1215.66 431.742M1145.22 441.522H1085.54M1145.22 441.522L1136 450.452M1145.22 441.522L1155.32 431.742M1085.54 441.522H1027.68M1085.54 441.522L1078.5 450.452M1085.54 441.522L1093.25 431.742M1027.68 441.522H967.83M1027.68 441.522L1032.81 431.742M967.83 441.522H910.5M967.83 441.522L970.382 431.742M910.5 441.522H851.66M910.5 441.522V450.452M910.5 441.522V431.742M851.66 441.522H792.85M851.66 441.522L854 450.452M851.66 441.522L849.097 431.742M792.85 441.522H735.03M792.85 441.522L797.5 450.452M792.85 441.522L787.757 431.742M735.03 441.522H675.64M735.03 441.522L742 450.452M735.03 441.522L727.397 431.742M675.64 441.522H617.887M675.64 441.522L685 450.452M675.64 441.522L665.388 431.742M617.887 441.522H557.934M617.887 441.522L629.5 450.452M617.887 441.522L605.169 431.742M557.934 441.522H499.35M557.934 441.522L542.528 431.742M499.35 441.522H442M499.35 441.522L515.5 450.452M499.35 441.522L481.661 431.742M421 431.742H481.661M481.661 431.742H542.528M481.661 431.742L459.359 419.411M542.528 431.742H605.169M542.528 431.742L523.103 419.411M605.169 431.742H665.388M605.169 431.742L589.132 419.411M665.388 431.742H727.397M665.388 431.742L652.462 419.411M727.397 431.742H787.757M727.397 431.742L717.772 419.411M787.757 431.742H849.097M787.757 431.742L781.336 419.411M849.097 431.742H910.5M849.097 431.742L845.866 419.411M910.5 431.742H970.382M910.5 431.742V419.411M970.382 431.742H1032.81M970.382 431.742L973.599 419.411M1032.81 431.742H1093.25M1032.81 431.742L1039.27 419.411M1093.25 431.742H1155.32M1093.25 431.742L1102.97 419.411M1155.32 431.742H1215.66M1155.32 431.742L1168.05 419.411M1215.66 431.742H1276.4M1215.66 431.742L1231.92 419.411M1276.4 431.742H1337.86M1276.4 431.742L1295.78 419.411M1337.86 431.742H1399.8M1337.86 431.742L1360.34 419.411M396 419.411H459.359M459.359 419.411H523.103M459.359 419.411L439.315 408.329M523.103 419.411H589.132M523.103 419.411L505.604 408.303M589.132 419.411H652.462M589.132 419.411L574.651 408.275M652.462 419.411H717.772M652.462 419.411L640.762 408.249M717.772 419.411H781.336M717.772 419.411L709.039 408.222M781.336 419.411H845.866M781.336 419.411L775.496 408.196M845.866 419.411H910.5M845.866 419.411L842.92 408.169M910.5 419.411H973.599M910.5 419.411V408.143M973.599 419.411H1039.27M973.599 419.411L976.546 408.117M1039.27 419.411H1102.97M1039.27 419.411L1045.2 408.09M1102.97 419.411H1168.05M1102.97 419.411L1111.92 408.063M1168.05 419.411H1231.92M1168.05 419.411L1179.79 408.036M1231.92 419.411H1295.78M1231.92 419.411L1246.95 408.01M1295.78 419.411H1360.34M1295.78 419.411L1313.74 407.984M1360.34 419.411H1425M1360.34 419.411L1381.22 407.957M1449 407.93L1381.22 407.957M1381.22 407.957L1313.74 407.984M1381.22 407.957L1407.63 393.473M1313.74 407.984L1246.95 408.01M1313.74 407.984L1336.55 393.473M1246.95 408.01L1179.79 408.036M1246.95 408.01L1266.11 393.473M1179.79 408.036L1111.92 408.063M1179.79 408.036L1194.83 393.473M1111.92 408.063L1045.2 408.09M1111.92 408.063L1123.42 393.473M1045.2 408.09L976.546 408.117M1045.2 408.09L1052.86 393.473M976.546 408.117L910.5 408.143M976.546 408.117L980.367 393.473M910.5 408.143L842.92 408.169M910.5 408.143V393.473M842.92 408.169L775.496 408.196M842.92 408.169L839.068 393.473M775.496 408.196L709.039 408.222M775.496 408.196L767.829 393.473M709.039 408.222L640.762 408.249M709.039 408.222L697.526 393.473M640.762 408.249L574.651 408.275M640.762 408.249L625.273 393.473M574.651 408.275L505.604 408.303M574.651 408.275L555.401 393.473M505.604 408.303L439.315 408.329M505.604 408.303L482.244 393.473M439.315 408.329L372 408.355M439.315 408.329L412.446 393.473M342 393.473H412.446M412.446 393.473H482.244M412.446 393.473L385.529 378.59M482.244 393.473H555.401M482.244 393.473L458.8 378.59M555.401 393.473H625.273M555.401 393.473L536.046 378.59M625.273 393.473H697.526M625.273 393.473L609.672 378.59M697.526 393.473H767.829M697.526 393.473L685.91 378.59M767.829 393.473H839.068M767.829 393.473L760.08 378.59M839.068 393.473H910.5M839.068 393.473L835.168 378.59M910.5 393.473H980.367M910.5 393.473V378.59M980.367 393.473H1052.86M980.367 393.473L984.251 378.59M1052.86 393.473H1123.42M1052.86 393.473L1060.66 378.59M1123.42 393.473H1194.83M1123.42 393.473L1135.16 378.59M1194.83 393.473H1266.11M1194.83 393.473L1210.19 378.59M1266.11 393.473H1336.55M1266.11 393.473L1285.73 378.59M1336.55 393.473H1407.63M1336.55 393.473L1359.94 378.59M1407.63 393.473H1479.5M1407.63 393.473L1434.76 378.59M1510.5 378.59H1434.76M1434.76 378.59H1359.94M1434.76 378.59L1466.55 361.157M1359.94 378.59H1285.73M1359.94 378.59L1387.33 361.157M1285.73 378.59H1210.19M1285.73 378.59L1308.71 361.157M1210.19 378.59H1135.16M1210.19 378.59L1228.19 361.157M1135.16 378.59H1060.66M1135.16 378.59L1148.9 361.157M1060.66 378.59H984.251M1060.66 378.59L1069.8 361.157M984.251 378.59H910.5M984.251 378.59L988.8 361.157M910.5 378.59H835.168M910.5 378.59V361.157M835.168 378.59H760.08M835.168 378.59L830.599 361.157M760.08 378.59H685.91M760.08 378.59L751.001 361.157M685.91 378.59H609.672M685.91 378.59L672.303 361.157M609.672 378.59H536.046M609.672 378.59L591.398 361.157M536.046 378.59H458.8M536.046 378.59L513.374 361.157M458.8 378.59H385.529M458.8 378.59L431.337 361.157M385.529 378.59H310.5M385.529 378.59L353.998 361.157M274.5 361.157H353.998M353.998 361.157H431.337M353.998 361.157L320.111 342.42M431.337 361.157H513.374M431.337 361.157L401.782 342.395M513.374 361.157H591.398M513.374 361.157L488.939 342.367M591.398 361.157H672.303M591.398 361.157L571.675 342.341M672.303 361.157H751.001M672.303 361.157L657.596 342.314M751.001 361.157H830.599M751.001 361.157L741.176 342.288M830.599 361.157H910.5M830.599 361.157L825.648 342.261M910.5 361.157H988.8M910.5 361.157V342.235M988.8 361.157H1069.8M988.8 361.157L993.744 342.208M1069.8 361.157H1148.9M1069.8 361.157L1079.75 342.181M1148.9 361.157H1228.19M1148.9 361.157L1163.89 342.155M1228.19 361.157H1308.71M1228.19 361.157L1247.84 342.128M1308.71 361.157H1387.33M1308.71 361.157L1333.83 342.101M1387.33 361.157H1466.55M1387.33 361.157L1417.32 342.075M1466.55 361.157H1547M1466.55 361.157L1501.39 342.049M1586.5 342.022L1501.39 342.049M1501.39 342.049L1417.32 342.075M1501.39 342.049L1540.92 320.363M1417.32 342.075L1333.83 342.101M1417.32 342.075L1451.4 320.389M1333.83 342.101L1247.84 342.128M1333.83 342.101L1362.41 320.416M1247.84 342.128L1163.89 342.155M1247.84 342.128L1270.22 320.443M1163.89 342.155L1079.75 342.181M1163.89 342.155L1180.98 320.469M1079.75 342.181L993.744 342.208M1079.75 342.181L1091.11 320.495M993.744 342.208L910.5 342.235M993.744 342.208L999.402 320.522M910.5 342.235L825.648 342.261M910.5 342.235V320.549M825.648 342.261L741.176 342.288M825.648 342.261L819.965 320.575M741.176 342.288L657.596 342.314M741.176 342.288L729.883 320.602M657.596 342.314L571.675 342.341M657.596 342.314L640.669 320.628M571.675 342.341L488.939 342.367M571.675 342.341L548.943 320.655M488.939 342.367L401.782 342.395M488.939 342.367L460.737 320.681M401.782 342.395L320.111 342.42M401.782 342.395L367.621 320.709M320.111 342.42L235 342.447M320.111 342.42L280.888 320.734M1632.5 320.336L1540.92 320.363M1540.92 320.363L1451.4 320.389M1540.92 320.363L1585.84 295.727M1451.4 320.389L1362.41 320.416M1451.4 320.389L1490.08 295.78M1362.41 320.416L1270.22 320.443M1362.41 320.416L1394.82 295.832M1270.22 320.443L1180.98 320.469M1270.22 320.443L1295.58 295.887M1180.98 320.469L1091.11 320.495M1180.98 320.469L1200.32 295.939M1091.11 320.495L999.402 320.522M1091.11 320.495L1103.95 295.992M999.402 320.522L910.5 320.549M999.402 320.522L1005.79 296.046M910.5 320.549L819.965 320.575M910.5 320.549V296.099M819.965 320.575L729.883 320.602M819.965 320.575L813.564 296.152M729.883 320.602L640.669 320.628M729.883 320.602L717.179 296.205M640.669 320.628L548.943 320.655M640.669 320.628L621.647 296.258M548.943 320.655L460.737 320.681M548.943 320.655L523.425 296.312M460.737 320.681L367.621 320.709M460.737 320.681L429.113 296.364M367.621 320.709L280.888 320.734M367.621 320.709L329.358 296.418M280.888 320.734L189 320.761M280.888 320.734L237.002 296.469M137.5 296.524L237.002 296.469M237.002 296.469L329.358 296.418M237.002 296.469L184.706 267.555M329.358 296.418L429.113 296.364M329.358 296.418L283.81 267.504M429.113 296.364L523.425 296.312M429.113 296.364L391.51 267.449M523.425 296.312L621.647 296.258M523.425 296.312L493.116 267.397M621.647 296.258L717.179 296.205M621.647 296.258L599.078 267.343M717.179 296.205L813.564 296.152M717.179 296.205L702.123 267.291M813.564 296.152L910.5 296.099M813.564 296.152L805.987 267.238M910.5 296.099L1005.79 296.046M910.5 296.099V267.184M1005.79 296.046L1103.95 295.992M1005.79 296.046L1013.33 267.132M1103.95 295.992L1200.32 295.939M1103.95 295.992L1119.11 267.078M1200.32 295.939L1295.58 295.887M1200.32 295.939L1223.12 267.025M1295.58 295.887L1394.82 295.832M1295.58 295.887L1325.43 266.972M1394.82 295.832L1490.08 295.78M1394.82 295.832L1432.94 266.917M1490.08 295.78L1585.84 295.727M1490.08 295.78L1535.52 266.865M1585.84 295.727L1683.5 295.674M1585.84 295.727L1638.55 266.813M184.706 267.555L104.054 222.962M184.706 267.555L77.5 267.609M184.706 267.555L283.81 267.504M104.054 222.962L1 165.983M104.054 222.962H27.5M104.054 222.962H213.645M283.81 267.504L213.645 222.962M283.81 267.504L391.51 267.449M213.645 222.962L79.0107 137.494M213.645 222.962H333.656M79.0107 137.494L6 91.1454M79.0107 137.494H222.507M79.0107 137.494H16.5M629.5 450.452H685M391.51 267.449L333.656 222.962M391.51 267.449L493.116 267.397M333.656 222.962L222.507 137.494M333.656 222.962H446.537M222.507 137.494L53.8477 7.80343L45 1M222.507 137.494H356.946M685 450.452H742M221 7.80343L356.946 137.494M493.116 267.397L446.537 222.962M493.116 267.397L599.078 267.343M446.537 222.962L356.946 137.494M446.537 222.962H564.438M356.946 137.494H497.727M742 450.452H797.5M396.5 7.80343L497.727 137.494M599.078 267.343L564.438 222.962M599.078 267.343L702.123 267.291M564.438 222.962L497.727 137.494M564.438 222.962H679.039M497.727 137.494H634.534M797.5 450.452H854M567 7.80343L634.534 137.494M702.123 267.291L679.039 222.962M702.123 267.291L805.987 267.238M679.039 222.962L634.534 137.494M679.039 222.962H794.384M634.534 137.494H771.987M854 450.452H910.5M738 7.80343L771.987 137.494M805.987 267.238L794.384 222.962M805.987 267.238L910.5 267.184M794.384 222.962L771.987 137.494M794.384 222.962H910.5M771.987 137.494H910.5M910.5 7.80343V137.494M910.5 267.184V222.962M910.5 267.184L1013.33 267.132M910.5 222.962V137.494M910.5 222.962H1024.86M910.5 137.494H1047.16M1081 7.80343L1047.16 137.494M1013.33 267.132L1024.86 222.962M1013.33 267.132L1119.11 267.078M1024.86 222.962L1047.16 137.494M1024.86 222.962H1142.23M1047.16 137.494H1187.03M1255 7.80343L1187.03 137.494M1119.11 267.078L1142.23 222.962M1119.11 267.078L1223.12 267.025M1142.23 222.962L1187.03 137.494M1142.23 222.962H1257.86M1187.03 137.494H1325.25M1078.5 450.452H1136M1427.5 7.80343L1325.25 137.494M1223.12 267.025L1257.86 222.962M1223.12 267.025L1325.43 266.972M1257.86 222.962L1325.25 137.494M1257.86 222.962H1370.87M1325.25 137.494H1459.1M1136 450.452H1191M1593 7.80343L1459.1 137.494M1325.43 266.972L1370.87 222.962M1325.43 266.972L1432.94 266.917M1370.87 222.962L1459.1 137.494M1370.87 222.962H1490.88M1459.1 137.494H1603.54M1191 450.452H1247M1774.5 7.80343L1603.54 137.494M1432.94 266.917L1490.88 222.962M1432.94 266.917L1535.52 266.865M1490.88 222.962L1603.54 137.494M1490.88 222.962H1604.52M1603.54 137.494H1738.84M1247 450.452H1303.75M1535.52 266.865L1604.52 222.962M1535.52 266.865L1638.55 266.813M1604.52 222.962L1738.84 137.494M1604.52 222.962H1718.5M1738.84 137.494L1807 94.1219M1738.84 137.494H1793.5M1359.5 450.877L1303.75 450.452M1638.55 266.813L1718.5 222.962M1638.55 266.813L1743.5 266.759M1718.5 222.962L1803 176.614M1718.5 222.962H1790" stroke="url(#paint0_radial_771_706)" stroke-width="0.5"/>
<defs>
<radialGradient id="paint0_radial_771_706" cx="0" cy="0" r="1" gradientUnits="userSpaceOnUse" gradientTransform="translate(912.5 671) rotate(90.5983) scale(814.044 1759.35)">
<stop offset="0.469195" stop-color="#5F6473" stop-opacity="0.932292"/>
<stop offset="1" stop-opacity="0"/>
</radialGradient>
</defs>
</svg>
